<svg id="レイヤー_1" data-name="レイヤー 1" xmlns="http://www.w3.org/2000/svg" viewBox="0 0 337.11 18.32"><defs><style>.cls-1{fill:#fff;}</style></defs><title>logo_w</title><g id="レイヤー_2" data-name="レイヤー 2"><g id="レイヤー_1-2" data-name="レイヤー 1-2"><polygon class="cls-1" points="2.29 0.52 0 0.52 0 17.52 2.06 17.52 2.06 3.74 9.4 14.59 16.71 3.73 16.71 17.52 18.77 17.52 18.77 0.52 16.52 0.52 9.4 11.28 2.29 0.52"/><rect class="cls-1" x="30.27" y="0.52" width="2.06" height="17"/><polygon class="cls-1" points="47.57 17.52 49.66 17.52 49.66 2.58 56.61 2.58 56.61 0.52 40.76 0.52 40.76 2.58 47.57 2.58 47.57 17.52"/><polygon class="cls-1" points="67.11 0.52 65.05 0.52 65.05 17.52 67.11 17.52 67.11 9.8 79.16 9.8 79.16 17.52 81.21 17.52 81.21 0.52 79.16 0.52 79.16 7.75 67.11 7.75 67.11 0.52"/><polygon class="cls-1" points="96.46 17.52 98.56 17.52 98.56 2.58 105.5 2.58 105.5 0.52 89.65 0.52 89.65 2.58 96.46 2.58 96.46 17.52"/><path class="cls-1" d="M118.78.52l-9.19,17h2.34l2.22-4.21h11.58L128,17.52h2.47l-9.25-17Zm-3.57,10.77L120,2.4l4.77,8.89Z" transform="translate(0 0)"/><path class="cls-1" d="M138.32,14.56a1.92,1.92,0,0,0-1.86,1.9,1.89,1.89,0,0,0,1.93,1.86,1.87,1.87,0,0,0,1.87-1.86,1.92,1.92,0,0,0-1.94-1.9Z" transform="translate(0 0)"/><path class="cls-1" d="M165.23,14l-.24.14A10,10,0,0,1,158.72,16c-4.08,0-8.21-2.39-8.21-7s4.11-6.93,8.18-6.93a10.19,10.19,0,0,1,6.76,2.17l1.19-1.67A12.41,12.41,0,0,0,158.93,0c-5.07,0-10.52,2.82-10.52,9,0,5.92,5.17,9,10.28,9a13.71,13.71,0,0,0,8.63-2.95V8.44h-7.27v2.1h5.18Z" transform="translate(0 0)"/><rect class="cls-1" x="175.66" y="0.52" width="2.06" height="17"/><polygon class="cls-1" points="192.96 17.52 195.06 17.52 195.06 2.58 202 2.58 202 0.52 186.15 0.52 186.15 2.58 192.96 2.58 192.96 17.52"/><polygon class="cls-1" points="212.5 0.52 210.44 0.52 210.44 17.52 212.5 17.52 212.5 9.8 224.55 9.8 224.55 17.52 226.6 17.52 226.6 0.52 224.55 0.52 224.55 7.75 212.5 7.75 212.5 0.52"/><path class="cls-1" d="M246.43,16c-1.17,0-4-.17-5.45-1.77-.65-.73-.92-1.45-.92-4V.52H238v9.65c0,2.38.13,4.18,1.73,5.72A9.22,9.22,0,0,0,246.22,18c2.53,0,5.74-.79,7.19-3,.81-1.25,1-2,1-4.87V.52h-2.06v9.65c0,2.34-.2,3-.68,3.69C250.4,15.74,247.58,16,246.43,16Z" transform="translate(0 0)"/><path class="cls-1" d="M281.22,8.45l-.32-.3.25-.35a4.21,4.21,0,0,0,1-2.88c0-2.92-1.83-4.4-5.44-4.4h-10.9v17h10.9c1.93,0,3.51-.1,4.76-1.29h0A5.18,5.18,0,0,0,283,12.42,4.89,4.89,0,0,0,281.22,8.45ZM267.89,2.58h8.77c1.62,0,2,.15,2.59.65A2.45,2.45,0,0,1,280,5c0,2.42-2.37,2.42-3.38,2.42h-8.77Zm12.15,12c-.7.7-1.4.88-3.38.88h-8.77v-6h8.91c1.95,0,2.45.11,3.1.68h0a3,3,0,0,1,1,2.29,3.09,3.09,0,0,1-.9,2.15Z" transform="translate(0 0)"/><path class="cls-1" d="M292.09,14.56a1.92,1.92,0,0,0-1.86,1.9,1.89,1.89,0,0,0,1.93,1.86A1.86,1.86,0,0,0,294,16.46,1.92,1.92,0,0,0,292.09,14.56Z" transform="translate(0 0)"/><rect class="cls-1" x="304.33" y="0.52" width="2.06" height="17"/><path class="cls-1" d="M326.66,0c-5.27,0-10.61,3-10.61,8.67v.49c0,5.9,5.2,9,10.34,9,5.32,0,10.72-3.14,10.72-9.16S331.85,0,326.66,0Zm-.24,16c-4,0-8.28-2.16-8.28-6.9s4.4-7,8.49-7S335,4.26,335,9,330.69,16,326.42,16Z" transform="translate(0 0)"/></g></g></svg>