<?xml version="1.0" encoding="utf-8"?>
<!-- Generator: Adobe Illustrator 23.0.1, SVG Export Plug-In . SVG Version: 6.00 Build 0)  -->
<svg version="1.1" id="レイヤー_1" xmlns="http://www.w3.org/2000/svg" xmlns:xlink="http://www.w3.org/1999/xlink" x="0px"
	 y="0px" viewBox="0 0 44.1 44.1" style="enable-background:new 0 0 44.1 44.1;" xml:space="preserve">
<style type="text/css">
	.st0{fill:#F71919;}
</style>
<path class="st0" d="M41.4,13.7V8.3c-0.8,0-1.6,0-2.3,0c-0.3,0-0.4-0.1-0.4-0.4c0-0.6,0-1.3,0-1.9c0-0.3-0.1-0.4-0.4-0.4
	c-0.5,0-1,0-1.7,0s-0.6,0-0.6-0.6V2.7h-0.6c-1.5,0-2.9,0-4.4,0c-0.4,0-0.5-0.1-0.5-0.5c0-0.7,0-1.5,0-2.2H13.8c0,0.8,0,1.5,0,2.2
	c0,0.4-0.1,0.5-0.5,0.5c-1.1,0-2.2,0-3.3,0H8.3c0,0.8,0,1.6,0,2.3c0,0.3-0.1,0.4-0.4,0.4c-0.6,0-1.3,0-1.9,0c-0.3,0-0.4,0.1-0.4,0.4
	c0,0.6,0,1.2,0,1.8c0,0.4-0.1,0.5-0.5,0.5c-0.7,0-1.4,0-2.2,0v0.6c0,1.5,0,2.9,0,4.4c0,0.4-0.1,0.5-0.5,0.5c-0.4,0-0.7,0-1.1,0H0V33
	h2.1c0.7,0,0.7,0,0.7,0.7v2.2c0.8,0,1.5,0,2.2,0c0.4,0,0.6,0.1,0.6,0.6c0,1.5,0,2.9,0,4.4c0,0.2,0,0.3,0,0.6c0.7,0,1.4,0,2.1,0
	c0.5,0,0.6,0.1,0.6,0.6c0,0.7,0,1.4,0,2.2h27.6c0-0.8,0-1.5,0-2.3c0-0.4,0.1-0.5,0.5-0.5c0.7,0,1.5,0,2.3,0v-0.6c0-1.5,0-2.9,0-4.4
	c0-0.4,0.1-0.5,0.5-0.5c0.7,0,1.4,0,2.2,0c0-0.8,0-1.5,0-2.3c0-0.4,0.1-0.5,0.5-0.5c0.7,0,1.5,0,2.2,0l0-19.4H41.4z M24.8,2.8
	c0.9,0,1.7,0,2.6,0c0.1,0,0.2,0.2,0.2,0.4c0,0.8,0,1.5,0,2.4l5.5,0v5.5H28c-0.3,0-0.4-0.1-0.4-0.4c0-0.7,0-1.5,0-2.3h-2.4
	c-0.2,0-0.4,0-0.4-0.3C24.8,6.3,24.8,4.6,24.8,2.8z M14.3,24.8c-0.5,0-0.6-0.1-0.6-0.6c0-2.4,0-4.7,0-7.1v-0.6c0.8,0,1.5,0,2.1,0
	c0.4,0,0.6-0.1,0.6-0.6c0-0.7,0-1.4,0-2.2H17c3.3,0,6.6,0,9.9,0c0.4,0,0.6,0.1,0.6,0.6c0,0.7,0,1.4,0,2.2h1.9c1,0,0.9-0.1,0.9,0.9
	c0,2.3,0,4.6,0,6.9c0,0.4-0.1,0.5-0.5,0.5c-0.6,0-1.2,0-1.9,0c-0.3,0-0.4,0.1-0.4,0.4c0,0.7,0,1.5,0,2.3h-11v-2.7
	C15.8,24.8,15.1,24.8,14.3,24.8z M11,5.9c0-0.3,0.1-0.4,0.4-0.4c1.4,0,3,0,4.4,0h0.6c0-0.8,0-1.5,0-2.2c0-0.4,0.1-0.5,0.6-0.5
	c0.7,0,1.4,0,2.2,0v0.9c0,1.3,0,2.7,0,4c0,0.6,0,0.6-0.6,0.6h-2.1V11c-0.1,0-0.3,0-0.4,0h-4.7c-0.3,0-0.5-0.1-0.5-0.4
	C11,9,11,7.5,11,5.9z M7.9,24.9c-1.6,0-3.2,0-4.7,0c-0.3,0-0.4-0.1-0.4-0.4c0-2.5,0-5,0-7.5c0-0.3,0.1-0.4,0.4-0.4
	c0.6,0,1.2,0,1.8,0c0.4,0,0.5-0.1,0.5-0.5c0-1.5,0-3,0-4.5V11c0.9,0,1.7,0,2.5,0c0.1,0,0.2,0.3,0.2,0.4c0,0.7,0,1.5,0,2.3
	c0.8,0,1.6,0,2.3-0.1c0.3,0,0.4,0.1,0.4,0.4c0,2.5,0,5,0,7.4c0,0.4-0.1,0.4-0.5,0.4c-0.6,0-1.2,0-1.9,0c-0.3,0-0.4,0.1-0.4,0.4
	c0,0.7,0,1.3,0,2C8.3,24.7,8.2,24.9,7.9,24.9z M35.8,38.3c0,0.1,0,0.2,0,0.3c-0.8,0-1.5,0-2.3,0c-0.4,0-0.5,0.1-0.5,0.5
	c0,0.7,0,1.5,0,2.2H10.9c0-0.7,0-1.4,0-2.1c0-0.5-0.1-0.6-0.6-0.6c-0.7,0-1.4,0-2.1,0v-5.5h2.7c0-0.8,0-1.5,0-2.2
	c0-0.4,0.1-0.6,0.5-0.6c1.7,0,3.3,0,5,0v5.5H19c0.3,0,0.3-0.3,0.3-0.5v-5h5.5v5c0,0.2,0,0.4,0.3,0.4h2.4v-5.5H33v2.7h2.3
	c0.3,0,0.5,0.1,0.5,0.4C35.8,35.1,35.8,36.7,35.8,38.3z M41.3,24.3c0,0.1,0,0.3,0,0.5c-0.1,0-0.3,0-0.4,0c-1.5,0-3.1,0-4.6,0
	c-0.4,0-0.5-0.1-0.5-0.5c0-0.7,0-1.5,0-2.3c-0.8,0-1.5,0-2.1,0c-0.4,0-0.6-0.1-0.6-0.5c0-2.4,0-4.8,0-7.2c0-0.2,0-0.3,0-0.5h2.7
	v-2.7c0.9,0,1.7,0,2.5,0c0.1,0,0.2,0.3,0.2,0.4c0,1.5,0,3,0,4.5v0.6c0.8,0,1.5,0,2.2,0c0.5,0,0.6,0.1,0.6,0.6
	C41.3,19.5,41.3,21.9,41.3,24.3z"/>
</svg>
